<svg xmlns="http://www.w3.org/2000/svg" width="116.453" height="8.031" viewBox="0 0 116.453 8.031"><defs><style>.a{fill:#fff;stroke:#fff;}.b{stroke:none;}.c{fill:none;}</style></defs><g transform="translate(-129.273 -552.984)"><g transform="translate(0 1)"><g class="a" transform="translate(129.273 551.984)"><circle class="b" cx="4.016" cy="4.016" r="4.016"/><circle class="c" cx="4.016" cy="4.016" r="3.516"/></g><g class="a" transform="translate(140.517 551.984)"><circle class="b" cx="4.016" cy="4.016" r="4.016"/><circle class="c" cx="4.016" cy="4.016" r="3.516"/></g><g class="a" transform="translate(150.958 551.984)"><circle class="b" cx="4.016" cy="4.016" r="4.016"/><circle class="c" cx="4.016" cy="4.016" r="3.516"/></g><g class="a" transform="translate(162.202 551.984)"><circle class="b" cx="4.016" cy="4.016" r="4.016"/><circle class="c" cx="4.016" cy="4.016" r="3.516"/></g><g class="a" transform="translate(172.642 551.984)"><circle class="b" cx="4.016" cy="4.016" r="4.016"/><circle class="c" cx="4.016" cy="4.016" r="3.516"/></g><g class="a" transform="translate(183.886 551.984)"><circle class="b" cx="4.016" cy="4.016" r="4.016"/><circle class="c" cx="4.016" cy="4.016" r="3.516"/></g><g class="a" transform="translate(194.327 551.984)"><circle class="b" cx="4.016" cy="4.016" r="4.016"/><circle class="c" cx="4.016" cy="4.016" r="3.516"/></g><g class="a" transform="translate(205.57 551.984)"><circle class="b" cx="4.016" cy="4.016" r="4.016"/><circle class="c" cx="4.016" cy="4.016" r="3.516"/></g><g class="a" transform="translate(216.011 551.984)"><circle class="b" cx="4.016" cy="4.016" r="4.016"/><circle class="c" cx="4.016" cy="4.016" r="3.516"/></g><g class="a" transform="translate(227.255 551.984)"><circle class="b" cx="4.016" cy="4.016" r="4.016"/><circle class="c" cx="4.016" cy="4.016" r="3.516"/></g><g class="a" transform="translate(237.695 551.984)"><circle class="b" cx="4.016" cy="4.016" r="4.016"/><circle class="c" cx="4.016" cy="4.016" r="3.516"/></g></g></g></svg>