<svg xmlns="http://www.w3.org/2000/svg" width="206.575" height="90.592" viewBox="0 0 206.575 90.592"><g transform="translate(-84.515 -221.405)"><path d="M173.9,645.089c0-7.016-.055-14.032.026-21.048a38.909,38.909,0,0,1,.62-8.023c1.515-6.779,5.588-11.612,12.209-13.873,8.19-2.8,16.43-2.885,24.444.741a17.364,17.364,0,0,1,10.781,15.691c.462,8.943.251,17.924.3,26.887.038,6.829.061,13.657.014,20.483a46.186,46.186,0,0,1-.418,7.775c-1.543,8.649-6.826,13.9-15.31,15.864a34.966,34.966,0,0,1-16.822.026c-10.1-2.588-15.506-9.31-15.729-19.715-.087-4.134-.1-8.268-.112-12.4S173.9,649.223,173.9,645.089Zm34.466,0c0-7.293.012-14.583-.012-21.876a19.645,19.645,0,0,0-.271-3.185c-.545-3.24-2.343-5.464-5.605-6.168a23.725,23.725,0,0,0-5.781-.629c-5.822.208-8.614,3.018-8.637,8.813-.066,15.977-.029,31.953,0,47.93a6.856,6.856,0,0,0,2.253,5.224c3.384,3.075,7.42,3.061,11.537,2.17a7.394,7.394,0,0,0,6.194-6.8,32.326,32.326,0,0,0,.306-4.019C208.386,659.39,208.369,652.238,208.369,645.086Z" transform="translate(18.117 -378.695)"/><path d="M155.9,642.593c0-6.315-.075-12.633.017-18.948a19.185,19.185,0,0,1,16.923-18.469c5.542-.69,11.032-.756,16.323,1.387,7.561,3.061,11.776,8.658,11.918,16.839.222,12.535.213,25.076.15,37.613a27.092,27.092,0,0,1-1.125,7.662,16.528,16.528,0,0,1-10.267,11.032c-7.708,2.925-15.527,3.119-23.169-.329-6.5-2.934-10.112-8.081-10.458-15.2-.346-7.186-.352-14.387-.508-21.582Zm31.74.842c0-5.807.035-11.612-.014-17.419-.02-2.628-.591-5.144-2.865-6.8a10.241,10.241,0,0,0-10.792-1.194c-3.612,1.624-4.61,4.815-4.6,8.5.023,5.9.006,11.8.006,17.7,0,5.155-.023,10.311.006,15.466.035,5.853,2.2,8.819,7.264,9.5,5.784.779,11.188-1.445,11.017-9.18C187.541,654.49,187.639,648.962,187.639,643.435Z" transform="translate(-16.154 -369.939)"/><path d="M163.784,670.579c3.675-22.2,8.94-43.611,13.55-65.153.785-3.675,2.276-4.827,6.015-4.841,1.483-.006,2.974.038,4.451.17,2.677.242,3.958,2,3.367,4.642q-4.842,21.593-9.722,43.178-3.83,16.968-7.683,33.932c-.153.678-.32,1.356-.522,2.02a4.767,4.767,0,0,1-4.991,3.817c-2.741.04-5.481.029-8.225.009-3.24-.026-4.754-1.2-5.5-4.391q-2.436-10.433-4.8-20.887-6.344-27.886-12.668-55.777c-.1-.453-.2-.906-.286-1.362-.606-3.372.707-5.057,4.105-5.21a39.118,39.118,0,0,1,4.725-.061c2.989.234,4.359,1.546,4.988,4.506q1.389,6.534,2.778,13.069c2.945,13.983,5.914,27.964,8.811,41.955.563,2.723.848,5.5,1.266,8.254C163.53,669.039,163.631,669.624,163.784,670.579Z" transform="translate(-52.111 -377.783)"/><path d="M221.355,612.939h-1.867q-9.343,0-18.683,0c-.972,0-1.947-.043-2.92-.115-2.844-.211-4.125-1.474-4.284-4.284a29.29,29.29,0,0,1,.017-3.9,3.822,3.822,0,0,1,3.776-3.909c2.308-.187,4.636-.136,6.953-.141q13.177-.017,26.351,0c.464,0,.929-.02,1.393.017,3.554.274,4.925,1.774,5.017,5.343a25.053,25.053,0,0,1-2.371,11.329q-13.19,28.552-26.267,57.159c-.225.493-.424,1-.7,1.659,1.209,0,2.221-.008,3.234,0q10.663.091,21.322.19c3.537.035,4.57.958,4.867,4.452a19.325,19.325,0,0,1-.023,3.744,3.907,3.907,0,0,1-4.125,3.86c-1.3.066-2.6.026-3.9.026q-15.336,0-30.672,0c-4.048,0-5.343-1.177-5.6-5.222a26.438,26.438,0,0,1,2.519-12.708q12.584-27.756,25.174-55.509C220.827,614.349,221.035,613.746,221.355,612.939Z" transform="translate(53.817 -377.792)"/></g></svg>